# xmcd CD database file
#
# Track frame offsets:
#	150
#	23535
#	49770
#	76051
#	103419
#	122941
#	150419
#	169907
#	191358
#	212038
#
# Disc length: 3146 seconds
#
# Revision: 0
# Processed by: cddbd v1.5.2PL0 Copyright (c) Steve Scherf et al.
# Submitted via: CDex 1.70beta2
#
DISCID=7a0c480a
DTITLE=Jessica Williams - Equinox
DYEAR=2006
DGENRE=Jazz
TTITLE0=Equinox  (Coltrane)
TTITLE1=Why Did I Choose You
TTITLE2=Gone With the Wind
TTITLE3=Elaine
TTITLE4=Bluse for Yooz
TTITLE5=Blues for Sherlock
TTITLE6=On Sonny's Side
TTITLE7=8 Dear Lord  (Coltrane)
TTITLE8=The Heart Path
TTITLE9=Bemsha Swing  (Monk)
EXTD=YEAR: 2006
EXTT0=
EXTT1=
EXTT2=
EXTT3=
EXTT4=
EXTT5=
EXTT6=
EXTT7=
EXTT8=
EXTT9=
PLAYORDER=
